<?xml version="1.0" encoding="utf-8"?>
<!-- Generator: Adobe Illustrator 16.0.0, SVG Export Plug-In . SVG Version: 6.00 Build 0)  -->
<!DOCTYPE svg PUBLIC "-//W3C//DTD SVG 1.1//EN" "http://www.w3.org/Graphics/SVG/1.1/DTD/svg11.dtd">
<svg version="1.1" id="Layer_1" xmlns="http://www.w3.org/2000/svg" xmlns:xlink="http://www.w3.org/1999/xlink" x="0px" y="0px"
	 width="512px" height="512px" viewBox="0 0 512 512" enable-background="new 0 0 512 512" xml:space="preserve">
<path fill="#faf8f2" d="M404.742,347.927c-0.001-0.003-0.003-0.004-0.004-0.004l-91.919-91.922l91.919-91.922
	c0.001-0.001,0.003-0.001,0.004-0.003c0.99-0.99,1.707-2.146,2.164-3.378c1.256-3.366,0.54-7.303-2.167-10.01l-43.423-43.407
	c-2.705-2.706-6.643-3.421-10.01-2.165c-1.229,0.458-2.386,1.174-3.377,2.163c0,0-0.002,0.001-0.003,0.003l-91.924,91.906
	l-91.92-91.922c-0.002-0.001-0.003-0.001-0.004-0.003c-0.99-0.989-2.146-1.705-3.377-2.162c-3.367-1.257-7.315-0.542-10.039,2.18
	l-43.394,43.4c-2.706,2.707-3.421,6.644-2.166,10.01c0.458,1.2,1.2,2.399,2.2,3.377c0.001,0,0,0,0,0l91.898,91.924l-91.923,91.9
	c0,0.002-0.001,0.003-0.002,0.005c-0.989,0.989-1.705,2.145-2.164,3.372c-1.256,3.367-0.541,7.3,2.2,10.012l43.423,43.4
	c2.707,2.699,6.6,3.399,10,2.166c1.23-0.459,2.388-1.175,3.378-2.164c0-0.001,0.001-0.001,0.003-0.003l91.92-91.923l91.921,91.923
	c0.001,0,0,0,0,0c0.991,1,2.101,1.699,3.4,2.164c3.366,1.199,7.3,0.5,10.009-2.165l43.423-43.425
	c2.707-2.706,3.424-6.644,2.166-10.01c-0.465-1.199-1.184-2.383-2.188-3.372h-0.025V347.927z"/>
</svg>
